HIERARCHY
ROOT Hips
{
	OFFSET -0.179506 -22.333345 2.821913
	CHANNELS 6 Xposition Yposition Zposition Zrotation Yrotation Xrotation 
	JOINT LeftUpLeg
	{
		OFFSET 6.951974 -9.140623 -0.681533
		CHANNELS 3 Zrotation Yrotation Xrotation
		JOINT LeftLeg
		{
			OFFSET 3.427654 -37.519855 -0.449580
			CHANNELS 3 Zrotation Yrotation Xrotation
			JOINT LeftFoot
			{
				OFFSET -1.359570 -39.796059 -4.369333
				CHANNELS 3 Zrotation Yrotation Xrotation
				JOINT LeftToe
				{
					OFFSET 2.635814 -5.579078 11.928840
					CHANNELS 3 Zrotation Yrotation Xrotation
					End Site
					{
						OFFSET 0.000000 0.000000 0.000000
					}
				}
			}
		}
	}
	JOINT RightUpLeg
	{
		OFFSET -6.767048 -9.052170 -0.431982
		CHANNELS 3 Zrotation Yrotation Xrotation
		JOINT RightLeg
		{
			OFFSET -3.829005 -38.256897 -0.885003
			CHANNELS 3 Zrotation Yrotation Xrotation
			JOINT RightFoot
			{
				OFFSET 1.577377 -39.841461 -4.231180
				CHANNELS 3 Zrotation Yrotation Xrotation
				JOINT RightToe
				{
					OFFSET -2.537174 -4.814398 12.334795
					CHANNELS 3 Zrotation Yrotation Xrotation
					End Site
					{
						OFFSET 0.000000 0.000000 0.000000
					}
				}
			}
		}
	}
	JOINT Spine
	{
		OFFSET -0.253288 10.896323 -2.669631
		CHANNELS 3 Zrotation Yrotation Xrotation
		JOINT Spine1
		{
			OFFSET 0.548704 13.518043 0.109247
			CHANNELS 3 Zrotation Yrotation Xrotation
			JOINT Spine2
			{
				OFFSET 0.145701 5.292222 2.542457
				CHANNELS 3 Zrotation Yrotation Xrotation
				JOINT Neck
				{
					OFFSET -0.277840 21.387037 -4.285703
					CHANNELS 3 Zrotation Yrotation Xrotation
					JOINT Head
					{
						OFFSET 0.515184 6.496960 5.134897
						CHANNELS 3 Zrotation Yrotation Xrotation
						End Site
						{
							OFFSET 0.000000 0.000000 0.000000
						}
					}
				}
				JOINT LeftShoulder
				{
					OFFSET 7.884473 12.174932 -3.408961
					CHANNELS 3 Zrotation Yrotation Xrotation
					JOINT LeftArm
					{
						OFFSET 9.097692 3.046888 -0.886815
						CHANNELS 3 Zrotation Yrotation Xrotation
						JOINT LeftForeArm
						{
							OFFSET 25.961220 -1.277207 -2.745643
							CHANNELS 3 Zrotation Yrotation Xrotation
							JOINT LeftHand
							{
								OFFSET 24.923361 0.898606 -0.117091
								CHANNELS 3 Zrotation Yrotation Xrotation
								End Site
								{
									OFFSET 0.000000 0.000000 0.000000
								}
							}
						}
					}
				}
				JOINT RightShoulder
				{
					OFFSET -8.175920 11.883285 -3.861528
					CHANNELS 3 Zrotation Yrotation Xrotation
					JOINT RightArm
					{
						OFFSET -9.601238 3.255117 -0.914307
						CHANNELS 3 Zrotation Yrotation Xrotation
						JOINT RightForeArm
						{
							OFFSET -25.374195 -1.332924 -2.140099
							CHANNELS 3 Zrotation Yrotation Xrotation
							JOINT RightHand
							{
								OFFSET -25.529810 0.777228 -0.555919
								CHANNELS 3 Zrotation Yrotation Xrotation
								End Site
								{
									OFFSET 0.000000 0.000000 0.000000
								}
							}
						}
					}
				}
			}
		}
	}
}
MOTION
Frames: 7
Frame Time: 0.033333
-4.755702 -70.032127 90.927231 176.441900 0.088241 88.516566 2.337612 5.648027 5.159230 -4.457537 1.861694 -6.253074 2.717210 11.945431 -7.396565 nan nan nan -3.485800 -6.050025 5.497572 2.952539 -4.378762 -4.161020 4.563581 -7.509887 -8.492948 nan nan nan 0.310535 0.905805 4.754512 0.568749 -2.982739 1.283676 1.011885 -1.272166 -1.213050 1.345637 3.831901 1.342607 0.386635 4.312690 11.366554 -28.606299 1.682779 3.780633 -57.109817 -5.299855 13.342033 6.811155 -23.991083 9.813613 -5.582480 -12.428900 0.936162 27.293576 3.325592 2.071486 58.219901 5.541715 15.207116 -9.405296 17.268642 0.044958 6.116950 4.985590 -1.086051 
-4.774490 -70.044685 90.911148 176.441129 0.008638 88.546786 2.282122 5.287926 5.308677 -4.811161 1.041691 -6.954744 4.243235 11.800593 -7.796623 nan nan nan -3.587328 -6.055612 5.421429 2.855874 -4.152156 -4.123380 4.836245 -7.553892 -8.452011 nan nan nan 0.296557 0.872057 4.879960 0.479153 -2.958329 1.109760 1.027887 -1.270412 -1.202351 1.220976 3.461902 1.117397 0.538215 4.661823 11.733160 -28.604015 1.674830 3.753611 -57.032778 -5.154984 13.406918 6.675586 -24.098179 10.106861 -5.137953 -12.180731 0.691159 27.190098 3.316981 2.124029 58.459019 5.546530 15.379908 -9.718385 17.206097 -0.124257 6.133064 4.958499 -1.304991 
-4.751801 -70.029762 90.919205 176.526459 0.185929 88.441547 2.601868 5.161944 5.450336 -4.983840 0.605890 -7.087355 5.210973 11.655375 -7.824536 nan nan nan -3.415585 -6.134020 5.554553 3.762012 -4.204039 -3.852956 2.736922 -8.381119 -9.591854 nan nan nan 0.554080 0.760794 5.100615 0.435692 -2.891342 0.899314 1.001130 -1.325275 -1.064785 1.375934 3.465409 1.094834 0.385303 4.586032 11.835090 -28.653651 1.715926 3.831125 -57.012758 -5.236418 13.268906 6.719433 -24.117923 10.312159 -5.332066 -12.174971 0.507327 27.082766 3.327448 1.957198 58.622197 5.387621 15.415148 -9.902153 17.243713 0.089932 6.447548 4.751662 -1.555383 
-4.749693 -70.013802 90.882118 176.547689 0.231460 88.473946 2.672396 5.307994 5.320365 -4.843795 0.740825 -6.768323 5.000240 11.755959 -7.706173 nan nan nan -3.424175 -6.170983 5.547255 3.899089 -4.312139 -3.841162 2.535159 -8.425772 -9.462845 nan nan nan 0.647797 0.714573 4.907722 0.425518 -2.898459 1.173494 0.997620 -1.292918 -1.255645 1.005073 3.525325 1.540619 0.034699 4.618983 10.648099 -28.503200 1.626986 3.897868 -57.334666 -5.179761 13.192663 7.002098 -23.993155 10.087391 -5.884503 -12.349284 0.907772 26.716555 3.450885 1.917796 59.034989 5.155974 15.184937 -10.033026 17.304799 0.145960 6.686887 4.637871 -1.221961 
-4.716909 -70.031975 90.877853 176.603287 0.423557 88.578075 2.904704 5.684330 4.950543 -4.567004 1.669381 -6.024990 2.855625 11.916710 -7.433262 nan nan nan -3.166340 -6.192899 5.457147 3.998333 -4.598350 -3.867759 2.418709 -8.497538 -9.376595 nan nan nan 0.839011 0.593043 4.666631 0.448561 -2.793822 1.232150 0.933702 -1.346701 -1.040382 1.407217 3.961070 1.125019 -0.255678 4.165265 11.101126 -28.466555 1.672921 3.914275 -57.385794 -5.353207 13.199134 7.040702 -24.050124 10.044652 -5.869415 -12.288108 0.851139 26.653034 3.358439 1.942836 59.073738 5.297282 15.162163 -9.993617 17.431839 0.384043 6.578232 4.458553 -1.238015 
-4.696251 -70.058922 90.891190 176.633199 0.452068 88.650466 2.859862 5.663965 4.848169 -4.450218 1.619088 -6.052922 2.719278 11.831824 -7.765398 nan nan nan -3.129886 -6.280861 5.403264 4.014519 -4.599798 -3.910466 2.280846 -8.539146 -9.269330 nan nan nan 0.851765 0.617064 4.598267 0.491261 -2.804024 1.332587 0.929424 -1.375510 -1.072641 1.656807 4.005806 0.840543 -0.550864 4.234942 11.622156 -28.504037 1.692077 3.915378 -57.361940 -5.352499 13.215460 7.061158 -24.345078 9.786962 -5.971617 -11.973429 0.665598 26.429427 3.255422 1.787064 59.286951 5.101216 15.287971 -10.169932 17.748280 0.461132 6.994754 3.970191 -1.038061 
-4.687109 -70.082184 90.912331 176.618080 0.443582 88.712173 2.864881 5.620808 4.742372 -4.502055 1.566121 -5.974397 2.661597 11.755189 -7.897001 nan nan nan -3.180264 -6.378746 5.297020 4.121208 -4.607403 -3.793803 2.294756 -8.567373 -9.113416 nan nan nan 0.866973 0.688956 4.608586 0.494554 -2.822342 1.344468 0.913177 -1.408842 -1.148490 1.819622 3.975503 0.837020 -0.699792 4.343325 11.800809 -28.516862 1.702355 3.929611 -57.333488 -5.296378 13.244673 7.009033 -24.567693 9.646721 -5.865550 -11.586291 0.429416 26.298614 3.169758 1.791546 59.310760 4.943015 15.441851 -10.102873 18.134787 0.591508 7.158725 3.660513 -1.143656 
